<svg role="img" fill="currentColor" data-name="Ebene 1" xmlns="http://www.w3.org/2000/svg" viewBox="0 0 780.0581 300"><polygon points="698.12 221.03 701.41 293.78 776.73 293.78 780.06 221.03 739.09 194.02 698.12 221.03"/><polyline points="394.91 6.2 327.2 249.95 326.06 249.95 258.43 6.2 210.41 6.2 295.84 293.8 356.56 293.8 443.78 6.2 394.82 6.2"/><path d="M54.41,64.08c8.51-17.02,21.91-24.55,47.16-24.55s38.63,7.53,47.14,24.55c8.7,17.39,8.56,52.02,8.56,61.37H46.2c0-9.35-.5-43.97,8.2-61.37M157.91,200.1c-.61,10.91-.3,24.07-11.3,39.92-8.3,11.96-20.2,20.4-44.72,20.4s-34.22-11.06-41.05-20.2c-11.96-16.01-14.47-41.8-14.47-74.83H203.33l.02 0c-.65-51.63,2.44-100.24-20.86-131.69C163.53,8.09,136.96,0,101.89,0,66.83,0,43.54,7.09,22.58,34.02-1.47,64.91.06,116.58.06,125.72c0,7.31-.06,37.38-.06,54.52,0,47.34,6.75,68.25,21.27,86.55C42.01,292.92,71.57,300,101.89,300c30.33,0,63.19-7.15,81.69-33.09,12.69-17.79,19.45-38.98,19.95-66.81H157.91Z"/><path d="M503.99,64.08c8.51-17.02,21.91-24.55,47.16-24.55s38.63,7.53,47.14,24.55c8.7,17.39,8.56,52.02,8.56,61.37h-111.06c0-9.35-.5-43.97,8.2-61.37M607.5,200.1c-.61,10.91-.3,24.07-11.3,39.92-8.3,11.96-20.2,20.4-44.72,20.4s-34.22-11.06-41.05-20.2c-11.96-16.01-14.47-41.8-14.47-74.83H652.91l.02 0c-.65-51.63,2.44-100.24-20.86-131.69C613.11,8.09,586.54,0,551.47,0c-35.07,0-58.35,7.09-79.32,34.02-24.05,30.89-22.51,82.56-22.51,91.7,0,7.31-.06,37.38-.06,54.52,0,47.34,6.75,68.25,21.27,86.55C491.6,292.92,521.15,300,551.47,300c30.33,0,63.19-7.15,81.69-33.09,12.69-17.79,19.45-38.98,19.95-66.81H607.5Z"/></svg>
