<svg xmlns="http://www.w3.org/2000/svg" role="img" aria-label="Hornbach logo" viewBox="928.475 10.23 163.346 163.422">
  <defs>
    <clipPath id="panel">
      <path d="M 928.475 10.23 H 1091.821 V 173.652 H 928.475 Z" />
    </clipPath>
  </defs>
  <path d="M 928.475 173.652 H 1091.821 V 10.23 H 928.475 Z" fill="#c40070" />
  <g clip-path="url(#panel)" fill="#f7911a">
    <path d="M 902.593 188.203 L 1103.413 -12.616 L 1114.615 -1.424 L 913.795 199.395 Z" />
    <path d="M 885.803 171.43 L 1086.623 -29.39 L 1097.827 -18.196 L 897.007 182.623 Z" />
    <path d="M 869.017 154.658 L 1069.835 -46.162 L 1081.037 -34.968 L 880.219 165.85 Z" />
    <path d="M 852.227 137.885 L 1053.047 -62.934 L 1064.249 -51.742 L 863.431 149.078 Z" />
    <path d="M 1240.333 286.065 L 1039.321 85.246 L 1050.525 74.04 L 1251.535 274.86 Z" />
    <path d="M 1223.545 302.855 L 1022.533 102.036 L 1033.737 90.832 L 1234.747 291.651 Z" />
    <path d="M 1206.755 319.646 L 1005.745 118.826 L 1016.947 107.621 L 1217.959 308.442 Z" />
    <path d="M 1189.967 336.436 L 988.955 135.617 L 1000.159 124.412 L 1201.169 325.232 Z" />
  </g>
</svg>
