<svg role="img" fill="currentColor" data-brand="#fb9375" version="1.0" xmlns="http://www.w3.org/2000/svg" viewBox="38 9.18 221.86 281.72" preserveAspectRatio="xMidYMid meet"> <g transform="translate(0,300) scale(.1,-.1)" fill="currentColor" stroke="none"> <path d="M1300 2895 c-102 -28 -234 -100 -298 -164 -178 -178 -225 -490 -110 -730 46 -97 158 -204 268 -258 116 -57 184 -73 325 -80 150 -6 237 11 353 68 113 55 186 129 241 241 103 211 90 459 -32 631 -23 33 -94 87 -114 87 -19 0 -17 -12 21 -114 19 -50 40 -121 46 -158 23 -133 -23 -289 -116 -388 -197 -211 -611 -147 -739 115 -26 52 -30 74 -33 162 -10 258 110 409 407 513 58 21 107 42 108 47 12 36 -223 56 -327 28z"/> <path d="M1690 1590 c-142 -21 -358 -25 -444 -9 -32 6 -61 8 -64 4 -9 -8 44 -51 100 -80 104 -55 228 -68 361 -39 73 16 231 86 277 123 l25 21 -65 -1 c-36 -1 -121 -9 -190 -19z"/> <path d="M1890 1508 c0 -45 -22 -78 -64 -100 -34 -18 -69 -23 -206 -30 -90 -4 -187 -14 -215 -22 -139 -41 -233 -158 -243 -303 -5 -81 8 -96 25 -30 27 98 130 204 226 232 29 8 106 19 172 24 176 15 258 45 307 112 21 28 26 96 9 125 -9 17 -10 16 -11 -8z"/> <path d="M380 680 l0 -140 105 0 c58 0 105 4 105 8 0 22 -29 32 -97 32 l-73 0 0 108 c0 102 -7 132 -32 132 -4 0 -8 -63 -8 -140z"/> <path d="M677 814 c-4 -4 -7 -46 -7 -93 0 -104 18 -148 72 -174 48 -23 99 -14 137 24 33 33 41 65 41 165 0 75 -6 89 -34 78 -13 -5 -16 -23 -16 -98 0 -84 -2 -95 -23 -114 -37 -35 -104 -26 -123 15 -4 10 -10 58 -14 107 -5 82 -15 108 -33 90z"/> <path d="M1046 804 c-3 -9 -6 -72 -6 -141 0 -123 0 -124 23 -121 21 3 22 9 27 95 l5 93 35 -55 c19 -30 42 -55 50 -55 8 0 31 25 50 55 l35 55 5 -93 c5 -86 6 -92 28 -95 l23 -3 -3 138 c-4 170 -12 178 -83 73 -27 -38 -52 -70 -55 -70 -4 0 -28 32 -54 70 -46 69 -68 85 -80 54z"/> <path d="M1467 813 c-4 -3 -7 -66 -7 -140 0 -124 1 -133 19 -133 27 0 31 18 31 156 0 114 -2 124 -18 124 -10 0 -22 -3 -25 -7z"/> <path d="M1660 679 c0 -128 2 -140 18 -137 14 3 18 18 22 98 l5 95 33 -52 c53 -83 54 -83 104 -11 l43 63 3 -97 c2 -90 4 -98 23 -98 19 0 19 6 17 137 -4 168 -11 175 -81 73 -26 -38 -51 -70 -55 -70 -4 1 -28 32 -55 70 -71 104 -77 98 -77 -71z"/> <path d="M2077 688 c-31 -73 -57 -137 -57 -141 0 -5 10 -7 22 -5 18 2 31 23 62 95 21 51 42 90 46 88 4 -2 24 -45 45 -95 32 -77 41 -90 61 -90 27 0 31 -13 -41 155 -30 70 -57 121 -66 123 -11 2 -31 -34 -72 -130z"/> <path d="M2367 813 c-4 -3 -7 -67 -7 -140 0 -134 0 -134 23 -131 21 3 22 9 27 96 l5 92 79 -100 c44 -55 84 -99 90 -97 14 5 21 287 7 287 -21 0 -30 -32 -33 -114 l-3 -88 -79 101 c-73 94 -93 111 -109 94z"/> <path d="M600 316 c0 -5 10 -46 22 -92 30 -115 42 -113 74 19 11 47 21 39 40 -33 10 -39 23 -70 30 -70 10 0 54 136 54 169 0 30 -18 -3 -29 -56 -20 -90 -26 -91 -47 -12 -11 40 -25 74 -31 76 -6 2 -18 -21 -28 -54 -9 -32 -19 -67 -22 -78 -4 -14 -12 1 -25 50 -17 60 -38 106 -38 81z"/> <path d="M860 306 c0 -9 5 -16 10 -16 6 0 10 4 10 9 0 6 -4 13 -10 16 -5 3 -10 -1 -10 -9z"/> <path d="M1380 290 c0 -30 -1 -31 -34 -25 -27 6 -39 2 -55 -14 -45 -45 -10 -130 47 -117 15 4 33 7 40 8 8 1 12 26 12 90 0 48 -2 88 -5 88 -3 0 -5 -14 -5 -30z m-11 -62 c19 -53 -26 -100 -65 -68 -17 15 -19 61 -2 78 20 20 58 14 67 -10z"/> <path d="M1693 313 c-7 -2 -13 -13 -13 -23 0 -10 -6 -21 -12 -23 -10 -4 -10 -7 -1 -14 6 -5 13 -33 16 -63 l3 -55 2 58 c2 43 6 57 17 57 20 0 19 18 -2 22 -16 3 -16 4 0 20 26 25 21 34 -10 21z"/> <path d="M1838 314 c-5 -4 -8 -45 -8 -91 l0 -83 63 2 62 2 -52 3 -52 4 -3 85 c-2 47 -6 82 -10 78z"/> <path d="M2190 231 c0 -97 17 -127 22 -38 3 48 5 52 30 55 29 3 34 -5 41 -78 2 -20 5 -8 5 27 2 59 1 63 -23 69 -14 3 -32 4 -40 0 -11 -4 -15 1 -15 19 0 13 -4 27 -10 30 -6 4 -10 -27 -10 -84z"/> <path d="M2351 296 c0 -10 -9 -25 -18 -32 -17 -12 -17 -13 -1 -14 14 0 18 -11 20 -57 2 -46 7 -59 21 -61 9 -2 17 1 17 7 0 6 -7 11 -15 11 -11 0 -15 12 -15 50 0 38 4 50 15 50 8 0 15 5 15 10 0 6 -6 10 -14 10 -8 0 -17 10 -19 23 -3 17 -5 18 -6 3z"/> <path d="M860 206 c0 -37 4 -66 10 -66 6 0 10 26 10 59 0 33 -4 63 -10 66 -6 4 -10 -18 -10 -59z"/> <path d="M915 260 c-4 -6 8 -10 29 -10 20 0 36 -3 36 -6 0 -3 -16 -25 -35 -48 -19 -24 -35 -46 -35 -50 0 -3 26 -5 58 -4 l57 1 -48 6 -47 6 40 45 c21 25 39 51 40 58 0 15 -86 17 -95 2z"/> <path d="M1062 258 c-17 -17 -15 -33 2 -18 19 15 61 9 61 -10 0 -8 -13 -17 -31 -20 -17 -4 -36 -10 -42 -14 -15 -9 -15 -39 0 -54 14 -14 54 -16 62 -3 3 5 14 7 24 4 16 -4 18 1 12 49 -3 29 -9 59 -13 66 -10 15 -59 16 -75 0z m68 -71 c0 -20 -22 -37 -47 -37 -28 0 -32 36 -5 43 34 9 52 7 52 -6z"/> <path d="M1190 207 c0 -76 17 -92 22 -20 2 38 8 50 26 59 15 8 20 14 12 19 -6 4 -17 2 -24 -4 -9 -7 -16 -7 -24 1 -9 9 -12 -4 -12 -55z"/> <path d="M1530 250 c-38 -38 -13 -120 38 -120 36 0 62 29 62 69 0 64 -57 94 -100 51z m81 -23 c15 -33 -4 -77 -34 -77 -30 0 -47 18 -47 50 0 14 5 31 12 38 20 20 57 14 69 -11z"/> <path d="M1983 205 c0 -38 2 -53 4 -32 2 20 2 52 0 70 -2 17 -4 1 -4 -38z"/> <path d="M2046 248 c-37 -53 -8 -113 51 -106 34 4 43 -8 21 -30 -16 -16 -50 -15 -67 1 -11 10 -13 9 -9 -3 3 -9 20 -16 46 -18 37 -3 43 0 52 23 13 34 13 142 0 150 -5 3 -10 1 -10 -6 0 -10 -3 -10 -12 -1 -19 19 -55 14 -72 -10z m77 -19 c25 -40 -24 -97 -58 -69 -15 13 -21 71 -8 84 12 12 55 2 66 -15z"/> </g> </svg>
