<svg role="img" fill="currentColor" version="1.1" xmlns="http://www.w3.org/2000/svg" xmlns:xlink="http://www.w3.org/1999/xlink" x="0px" y="0px" viewBox="516.3 259.1 104.3 125.2" xml:space="preserve"> <g>  </g> <g> <path d="M516.3,321.7c0,34.6,23.3,62.6,52.2,62.6c28.8,0,52.1-28,52.1-62.6s-23.3-62.6-52.1-62.6 C539.6,259.1,516.3,287.1,516.3,321.7" fill-rule="evenodd" clip-rule="evenodd" fill="rgb(255, 80, 0)"></path> <path d="M563,363.8c0,1,1.4,2.6,2.1,2.6h3.3h3.3c.7,0,2.1-1.6,2.1-2.6h-5.4H563z" fill="rgb(255, 255, 255)"></path> <path d="M560,353.6v6.5c0,.9,.5,1.8,1.3,1.8h7.2h7.2c.8,0,1.3-.9,1.3-1.8v-6.5h-8.5H560z" fill="rgb(255, 255, 255)"></path> <path d="M558.6,346v.2v3.7c0,.9,.5,1.8,1.3,1.8h8.5h8.5c.8,0,1.3-.9,1.3-1.8v-3.7V346h-9.8H558.6z" fill="rgb(255, 255, 255)"></path> <path d="M568.4,285c-17,0-24.6,15-24.6,24.8c0,8.6,6.3,16.3,8.4,19.9c2.1,3.6,3.5,10.8,3.8,11.8c.3,1,1.3,2.6,2.6,2.6 h9.8h9.8c1.3,0,2.3-1.6,2.6-2.6c.3-1,1.7-8.1,3.8-11.8c2.1-3.6,8.4-11.2,8.4-19.9C593,300,585.4,285,568.4,285" fill="rgb(255, 255, 255)"></path> <path d="M569.9,316.4l-7.6,12.3h-6.9l0-12.3h4.5l0,9.4l5.3-9.4H569.9z M528.8,316.4c-5.6,0-7.1,2.1-7.1,4.6 c0,3.7,6.2,1.7,6.2,4.1c0,.6-.6,1.4-2,1.4c-1.5,0-1.5-.9-1.1-2h-4.3c-1.2,3.7,1.6,4.6,4.7,4.6c3,0,7.4-1.2,7.4-5 c0-4.2-6.4-2-6.4-3.9c0-1,.7-1.4,1.7-1.4c1.3,0,1.3,.7,1.2,1.6h4.3C534,317.1,531.8,316.4,528.8,316.4 M542.9,316.4l-3.8,5.3 l-1-5.3h-4.6l2,8.6l-1,3.7h4.6l1.1-3.7l6.8-8.6H542.9z M551.9,316.4h-4.5l-3.7,12.3h10.1l.8-3l-5.6,0L551.9,316.4z M599.3,316.4 l-3.8,12.3h4.5l3.8-12.3H599.3z M611,328.7v-2.6h-4l-1.5,2.6h-4.8l7.8-12.3h6.9l0,12.3H611z M611,324.3v-5.1l-3,5.1H611z M593.4,316.4l-2.4,8.3l-.9-8.3h-6.2l-3.8,12.3h3.6l2.6-8.6l1.2,8.6h5.8l3.8-12.3H593.4z M579.5,316.4l0,12.3H575v-2.6h-4 l-1.5,2.6h-4.8l7.8-12.3H579.5z M575,324.3v-5.1l-3,5.1H575z" fill="currentColor"></path> </g> </svg>
